<svg width="48" height="48" viewBox="0 0 48 48" xmlns="http://www.w3.org/2000/svg">
<path d="M24 16.5C21.5187 16.5 19.5 18.5187 19.5 21C19.5 23.4813 21.5187 25.5 24 25.5C26.4813 25.5 28.5 23.4813 28.5 21C28.5 18.5187 26.4813 16.5 24 16.5ZM24 24C22.3458 24 21 22.6542 21 21C21 19.3458 22.3458 18 24 18C25.6542 18 27 19.3458 27 21C27 22.6542 25.6542 24 24 24ZM24 12C19.0294 12 15 16.0294 15 21C15 24.6287 16.2642 25.6421 23.0751 35.5158C23.522 36.1613 24.478 36.1614 24.925 35.5158C31.7358 25.6421 33 24.6287 33 21C33 16.0294 28.9706 12 24 12ZM24 34.2155C17.4705 24.7729 16.5 24.0232 16.5 21C16.5 18.9967 17.2801 17.1133 18.6967 15.6967C20.1133 14.2801 21.9967 13.5 24 13.5C26.0033 13.5 27.8867 14.2801 29.3033 15.6967C30.7199 17.1133 31.5 18.9967 31.5 21C31.5 24.023 30.5301 24.772 24 34.2155Z" />
</svg>
