<svg width="48" height="48" viewBox="0 0 48 48" fill="none" xmlns="http://www.w3.org/2000/svg">
    <path d="M30.8571 16.8571C30.8571 13.0761 27.781 10 24 10C20.2189 10 17.1429 13.0761 17.1429 16.8571H12V33.1429C12 35.5098 13.9188 37.4286 16.2857 37.4286H31.7143C34.0812 37.4286 36 35.5098 36 33.1429V16.8571H30.8571ZM24 11.7143C26.8358 11.7143 29.1429 14.0213 29.1429 16.8571H18.8571C18.8571 14.0213 21.1642 11.7143 24 11.7143ZM34.2857 33.1429C34.2857 34.5607 33.1322 35.7143 31.7143 35.7143H16.2857C14.8678 35.7143 13.7143 34.5607 13.7143 33.1429V18.5714H17.1429V21.1429C17.1429 21.6163 17.5266 22 18 22C18.4734 22 18.8571 21.6163 18.8571 21.1429V18.5714H29.1429V21.1429C29.1429 21.6163 29.5266 22 30 22C30.4734 22 30.8571 21.6163 30.8571 21.1429V18.5714H34.2857V33.1429Z"/>
</svg>
