<svg width="48" height="48" viewBox="0 0 48 48" xmlns="http://www.w3.org/2000/svg">
<path d="M24 13.5C26.8969 13.5 29.25 15.8531 29.25 18.75C29.25 21.6469 26.8969 24 24 24C21.1031 24 18.75 21.6469 18.75 18.75C18.75 15.8531 21.1031 13.5 24 13.5ZM30 28.5C32.4797 28.5 34.5 30.5203 34.5 33V34.5H13.5V33C13.5 30.5203 15.5203 28.5 18 28.5C21.9844 28.5 21.1547 29.25 24 29.25C26.8547 29.25 26.0109 28.5 30 28.5ZM24 12C20.2734 12 17.25 15.0234 17.25 18.75C17.25 22.4766 20.2734 25.5 24 25.5C27.7266 25.5 30.75 22.4766 30.75 18.75C30.75 15.0234 27.7266 12 24 12ZM30 27C25.6687 27 26.6719 27.75 24 27.75C21.3375 27.75 22.3266 27 18 27C14.6859 27 12 29.6859 12 33V34.5C12 35.3297 12.6703 36 13.5 36H34.5C35.3297 36 36 35.3297 36 34.5V33C36 29.6859 33.3141 27 30 27Z"/>
</svg>
